<svg width="75" height="75" viewBox="0 0 75 75" fill="none" xmlns="http://www.w3.org/2000/svg">
<path d="M65.9581 61.2142C69.746 56.6566 72.3805 51.2538 73.6388 45.4628C74.8971 39.6717 74.7421 33.6628 73.1869 27.9444C71.6317 22.2259 68.7222 16.9661 64.7043 12.6099C60.6864 8.25379 55.6784 4.92941 50.104 2.91805C44.5297 0.90668 38.5528 0.267493 32.6792 1.05456C26.8055 1.84162 21.2078 4.03178 16.3596 7.43977C11.5114 10.8477 7.55529 15.3733 4.826 20.6336C2.09671 25.8938 0.674511 31.7341 0.679702 37.6602C0.681694 46.2752 3.71756 54.6143 9.25459 61.2142L9.20184 61.259C9.38647 61.4806 9.59748 61.6705 9.78739 61.8894C10.0248 62.1611 10.2806 62.4169 10.5259 62.6807C11.2645 63.4825 12.0241 64.2527 12.8206 64.9754C13.0633 65.197 13.3139 65.4027 13.5592 65.6137C14.4032 66.3417 15.271 67.0327 16.1704 67.6763C16.2865 67.7554 16.392 67.8583 16.508 67.9401V67.9084C22.6856 72.2557 30.0551 74.5888 37.609 74.5888C45.1628 74.5888 52.5323 72.2557 58.7099 67.9084V67.9401C58.826 67.8583 58.9288 67.7554 59.0475 67.6763C59.9443 67.0301 60.8147 66.3417 61.6587 65.6137C61.904 65.4027 62.1546 65.1943 62.3973 64.9754C63.1938 64.25 63.9535 63.4825 64.692 62.6807C64.9373 62.4169 65.1905 62.1611 65.4305 61.8894C65.6178 61.6705 65.8315 61.4805 66.0161 61.2564L65.9581 61.2142ZM37.6063 16.5593C39.9538 16.5593 42.2487 17.2554 44.2005 18.5596C46.1524 19.8639 47.6737 21.7176 48.5721 23.8864C49.4705 26.0552 49.7055 28.4417 49.2475 30.7442C48.7896 33.0466 47.6591 35.1615 45.9992 36.8214C44.3392 38.4814 42.2243 39.6118 39.9219 40.0698C37.6195 40.5278 35.233 40.2927 33.0642 39.3944C30.8953 38.496 29.0416 36.9747 27.7374 35.0228C26.4332 33.0709 25.7371 30.7761 25.7371 28.4286C25.7371 25.2807 26.9876 22.2617 29.2135 20.0357C31.4394 17.8098 34.4584 16.5593 37.6063 16.5593ZM16.5239 61.2142C16.5696 57.7509 17.977 54.4449 20.4417 52.0113C22.9063 49.5778 26.2299 48.2125 29.6935 48.2107H45.5192C48.9827 48.2125 52.3064 49.5778 54.771 52.0113C57.2356 54.4449 58.643 57.7509 58.6888 61.2142C52.9041 66.427 45.3933 69.3118 37.6063 69.3118C29.8194 69.3118 22.3086 66.427 16.5239 61.2142Z" fill="#6F6F6F"/>
</svg>
